<svg width="1600" height="2000" viewBox="0 0 1600 2000" fill="none" xmlns="http://www.w3.org/2000/svg">
  <rect width="1600" height="2000" fill="#050505"/>
  <rect x="72" y="72" width="1456" height="1856" rx="56" stroke="rgba(255,255,255,0.08)" stroke-width="2"/>
  <circle cx="1260" cy="320" r="180" fill="url(#paint0_radial)" opacity="0.7"/>
  <circle cx="360" cy="1510" r="220" fill="url(#paint1_radial)" opacity="0.5"/>
  <path d="M410 1130C540 930 760 856 960 896C1120 928 1230 1024 1284 1152" stroke="#EDE7E1" stroke-width="34" stroke-linecap="round"/>
  <path d="M390 1196C528 976 760 898 978 940C1144 972 1270 1078 1332 1218" stroke="#8BAAAE" stroke-width="20" stroke-linecap="round" opacity="0.85"/>
  <path d="M352 1064C522 792 800 686 1068 736C1224 766 1350 848 1440 964" stroke="rgba(255,255,255,0.14)" stroke-width="4" stroke-linecap="round" stroke-dasharray="16 18"/>
  <rect x="258" y="1060" width="112" height="232" rx="40" fill="#141414" stroke="rgba(255,255,255,0.12)" stroke-width="3"/>
  <rect x="308" y="1088" width="12" height="176" rx="6" fill="#EDE7E1"/>
  <rect x="1232" y="1162" width="112" height="232" rx="40" fill="#141414" stroke="rgba(255,255,255,0.12)" stroke-width="3"/>
  <rect x="1282" y="1190" width="12" height="176" rx="6" fill="#EDE7E1"/>
  <rect x="618" y="540" width="364" height="480" rx="46" fill="url(#paint2_linear)" stroke="rgba(255,255,255,0.14)" stroke-width="3"/>
  <rect x="660" y="586" width="280" height="392" rx="30" fill="#080808" stroke="rgba(255,255,255,0.08)" stroke-width="2"/>
  <path d="M736 696H862" stroke="#F4EEE9" stroke-width="20" stroke-linecap="round"/>
  <path d="M736 760H900" stroke="rgba(244,238,233,0.36)" stroke-width="14" stroke-linecap="round"/>
  <path d="M736 818H824" stroke="rgba(244,238,233,0.24)" stroke-width="14" stroke-linecap="round"/>
  <circle cx="1010" cy="1558" r="132" fill="#111111" stroke="rgba(255,255,255,0.14)" stroke-width="3"/>
  <circle cx="1010" cy="1558" r="84" fill="#050505" stroke="#EDE7E1" stroke-width="18"/>
  <circle cx="1010" cy="1558" r="16" fill="#EDE7E1"/>
  <path d="M456 1510C544 1420 646 1376 760 1376C874 1376 972 1420 1050 1510" stroke="rgba(255,255,255,0.14)" stroke-width="4"/>
  <text x="176" y="1680" fill="#F4EEE9" font-family="Arial, Helvetica, sans-serif" font-size="68" font-weight="700" letter-spacing="10">COREACTIVE</text>
  <text x="176" y="1762" fill="rgba(244,238,233,0.62)" font-family="Arial, Helvetica, sans-serif" font-size="32" font-weight="700" letter-spacing="9">RESISTANCE BAND SET</text>
  <defs>
    <radialGradient id="paint0_radial" cx="0" cy="0" r="1" gradientUnits="userSpaceOnUse" gradientTransform="translate(1260 320) rotate(90) scale(180)">
      <stop stop-color="#8BAAAE"/>
      <stop offset="1" stop-color="#8BAAAE" stop-opacity="0"/>
    </radialGradient>
    <radialGradient id="paint1_radial" cx="0" cy="0" r="1" gradientUnits="userSpaceOnUse" gradientTransform="translate(360 1510) rotate(90) scale(220)">
      <stop stop-color="#EDE7E1"/>
      <stop offset="1" stop-color="#EDE7E1" stop-opacity="0"/>
    </radialGradient>
    <linearGradient id="paint2_linear" x1="618" y1="540" x2="982" y2="1020" gradientUnits="userSpaceOnUse">
      <stop stop-color="#121212"/>
      <stop offset="1" stop-color="#090909"/>
    </linearGradient>
  </defs>
</svg>
