<svg viewBox="0 0 1062 923" xmlns="http://www.w3.org/2000/svg" data-name="Layer 2" id="Layer_2">
  <defs>
    <style>
      .cls-1 {
        fill: none;
      }

      .cls-2 {
        fill: #fff;
      }
    </style>
  </defs>
  <g data-name="Layer 1" id="Layer_1-2">
    <g id="XPjrIa">
      <g>
        <polygon points="1062 916 874.5 916 873 914.5 873 890 1017 890 533.49 50.99 45 888 184.5 888 186 889.5 186 914 0 914 532.52 0 1062 916" class="cls-2"></polygon>
        <path d="M582.5,791l19.51,69c1.82-.38,1.86-1.97,2.02-3.46,2.24-20.09-1.4-41.94-.96-61.98.03-1.18.9-2.34.92-3.56h19v132h-21.5l-23.23-83.82-2.27-2.18v86h-18.5v-132h25Z" class="cls-2"></path>
        <path d="M255.5,791c6.07.76,14.87,5.52,18.33,10.67,7.46,11.08,8.27,42.09-5.64,49.49l-.23,2.3c4.06,2.53,8.24,6.51,10.07,11.01,3.87,9.49,3.68,31.74.48,41.55-2.94,9.02-14.71,16.99-24.01,16.99h-37l-1.5-1.5v-130.5c12.43,1.12,27.39-1.51,39.5,0ZM253.7,841.69c4-3.63,3.88-16.08,3.3-21.19-1.26-11.09-10-10.22-19.06-9.06-1.44,1.01-1.55,29.94-.05,31.98,4.5,2.03,12.08,1.67,15.81-1.72ZM238.05,902.94c6.16-.35,16.75,2.23,19.46-4.93,2.26-5.95,2.78-26.66-1.98-31.04-3.31-3.05-17.11-5.22-18.39-.25l.91,36.23Z" class="cls-2"></path>
        <path d="M292,923l20.15-130.35c.31-1.32,1.21-1.44,2.35-1.65,2.55-.47,28.11-.64,29.36.14,5.88,38.8,13.02,77.66,18.98,116.53.5,3.25,2.06,10.48,1.97,13.08-.04,1.22-.36,1.54-1.3,2.25h-19c-4.2-3-2.64-21.55-5.43-23.57h-23.13s-5.43,23.57-5.43,23.57h-18.5ZM336,880c-1.15-13.32-3.89-26.44-5.86-39.64-.64-4.32-.46-9.84-1.15-13.85-.24-1.39-.86-2.65-2.49-2.51l-8.51,56.01h18Z" class="cls-2"></path>
        <path d="M732,791v18.5l-1.5,1.5h-31l-1.5,1.5v35l1.5,1.5h24l1.34,1.66c-.37,5.73,1.77,13.59-1.34,18.34h-24c-1.43.88-1.38,1.99-1.55,3.45-1.22,10.35,2.54,40.56-1.53,47.47-.39.65-2.67,3.08-2.92,3.08h-16l-1.5-1.5v-129l1.5-1.5h54.5Z" class="cls-2"></path>
        <polygon points="802 923 802 812.5 800.5 811 781.5 811 780 809.5 780 792.5 781.5 791 844.5 791 846 792.5 846 809.5 844.5 811 825.5 811 824 812.5 824 921.5 822.5 923 802 923" class="cls-2"></polygon>
        <polygon points="469 791 469 901.5 470.5 903 501.5 903 503 904.5 503 923 448.5 923 447 921.5 447 791 469 791" class="cls-2"></polygon>
        <path d="M400,791l1.5,112h31c4.28,0,.28,16.61,1.5,20h-55v-132h21Z" class="cls-2"></path>
        <rect height="132" width="22" y="791" x="516" class="cls-2"></rect>
        <rect height="132" width="22" y="791" x="746" class="cls-2"></rect>
        <path d="M499,216.5c1.02-3.65,20.03-3.24,22.35-1.58.42.3,1.65,3.24,1.65,3.58v115.5c7.76.36,15.75-.49,23.49,0,3.6.23,9.89.78,12.51,2.49v18l-1.5,1.5h-57l-1.5-1.5v-138Z" class="cls-2"></path>
        <path d="M371,612c-.98-.32-2.17,1-2.5,1h-19.5c.32-.98-1-2.17-1-2.5v-19c0-7.43-18.01-13.26-20.55,1.45v85.11c1,8.72,12.75,10.84,18.09,4.99,6.85-7.51.41-20.66,2.66-28.34,1.28-4.36,20.65-3.52,22.31-.71s.28,25.73-.8,30.22c-5.04,20.86-26.93,28.34-46.17,21.75-27.23-9.33-19.61-45.67-19.46-67.46.11-16.53-3.56-48.5,4.72-62.19,11.73-19.4,48.81-18.41,58.39,3,.92,2.06,3.81,10.51,3.81,12.19v20.5Z" class="cls-2"></path>
        <path d="M692,564l9.11,91.39c.71,2.25.47,5.81,2.88,6.61l9.18-96.33c.29-1.34,1.18-1.45,2.33-1.67,2.56-.48,19.14-.32,20.04.96.41,2.19,1.07,4.46,1.33,6.67,3.16,26.91,4.43,54.05,8.11,80.89.46,3.33-1.51,8.65,2,10.49,2.28-14.06,2.56-28.36,4.02-42.49.69-6.66,2.29-13.37,2.98-20.02,1.22-11.77.02-25.54,4.51-36.49h18.5c1.85,4.07-.49,7.64-.88,11.62-4.28,43.51-9.41,86.83-14.22,130.27l-30.44-.85-6.46-62.05c-2.36-.72-2.69,1.79-2.9,3.58-1.14,9.9-1.09,20.01-2.11,29.91-.97,9.44-3.05,18.98-3.42,28.58-1.14,1.65-28.24,1.37-32.13,0-1.51-19.27-4.27-38.39-6.43-57.57-.3-2.63.27-5.35-.02-7.98-2.63-23.3-7.76-48.93-8.94-72.16-.06-1.16.39-3.35,1.45-3.35h21.5Z" class="cls-2"></path>
      </g>
    </g>
    <g>
      <path d="M574.98,567.74c18.34-9.74,11.82-37.87-8.74-39.75-14.99-1.37-18.09,10.39-29.69,13.32-15.81,3.99-18.77-11.04-31.56-13.07-24.54-3.89-35.59,26.63-16.21,39.21,5.86,3.81,15.2,1.67,18.96,6.04,4.42,5.15-.91,7.35-3.62,10.88-30.39,39.54,20.18,82.5,53.63,53.14,13.12-11.52,16.25-32.43,7.38-47.4-2.92-4.92-10.16-8.97-8.21-15.41,1.28-4.22,13.44-4.5,18.07-6.96ZM527.78,592.51c-1.22.56-11.73-3.83-12.54-5.51-1.48-3.07-.14-7.96,3.23-8.86,6.88-1.84,17.74,10.49,9.32,14.37ZM545.64,589.4c-.92.58-7.99,3.42-8.44,3.35-5.21-.76-1.08-13,5.3-14.58,6.32-1.56,10.8,6.38,3.14,11.22ZM547.25,555.98c-9.44-3.47-16.58-3.87-26.3-1.26-7.08,1.9-16.22,9.14-22.64,8.24-18.43-2.6-14.11-31.95,6.46-26.49,10.82,2.87,11.53,13.27,29.51,12.58,14.9-.58,18.91-12.99,28.19-13.83,12.68-1.14,19.63,12.81,11.11,23.12-8.88,10.76-17.45.91-26.32-2.36Z" class="cls-2"></path>
      <path d="M562.25,545c-.59.14-1.53,2.05-2.52,2.49-1.62.72-3.03.27-4.44.56-6.26,1.31.62,6.57,6.17,4.2,4.82-2.06,3.7-7.94.79-7.25Z" class="cls-2"></path>
      <path d="M504.9,548.87l-2.18-4.88c-8.42,6.76,2.7,12.47,9.01,6.49-.52-4.73-5.28-.71-6.83-1.61Z" class="cls-2"></path>
    </g>
    <g>
      <path d="M442.42,614.63c.25.85.64,1.71.87,2.57,1.27,3.1,2.3,5.27,3.43,7.12.94.37,1.87.75,2.8,1.14l-7.99-14.01c.29,1.06.58,2.12.9,3.18Z" class="cls-1"></path>
      <path d="M446.89,633.09c-.94-.41-1.93-.8-3.13-1.28l-2.53-.99-1.41-2.32c-1.31-2.17-2.51-4.63-3.99-8.24l-.22-.54-.14-.56c-.06-.21-.15-.43-.23-.66-.19-.52-.38-1.05-.53-1.56-.83-2.77-1.54-5.55-2.23-8.23-.25-.98-.5-1.96-.76-2.94-.79-2.99-1.07-7.37-.86-13.01l-88.87-155.76-181.98,310.99,359.99,1-63.52-111.33c-1.88-.81-3.66-1.7-5.37-2.55-1.48-.74-2.87-1.43-4.22-2.02Z" class="cls-1"></path>
      <path d="M586.54,634.25l34.7-60.6c-3.25-8.9-6.19-18.01-8.98-27.05-7.84-25.42-18.77-76.4-30.66-97.14-1.07-1.85-7.06-9.13-7.85-11.83l-84.99-.25c-4.27,6.4-9.3,12.25-11.91,19.64l-35.45,116.3c-.07.69-.16,1.39-.25,2.08l.35.61.11-.35,31.55,57.69-.03.03s.01,0,.02,0l.46-.45c12.01,7.71,24.31,18.98,36.72,25.67,3.58,1.92,7.37,3.71,11.31,4.79,25.3,6.91,44.5-16.92,64.66-28.16l.7-1.24c-.15.08-.3.17-.45.25Z" class="cls-1"></path>
      <path d="M564.38,420.58h-64.44c-.05.14-.11.28-.16.41h64.72c-.04-.14-.09-.27-.12-.41Z" class="cls-1"></path>
      <path d="M588.58,445.46c8.95,15.61,16.88,45.41,23.87,71.7,2.71,10.19,5.27,19.81,7.51,27.07,1.82,5.92,4.14,13.27,6.77,20.85l74.27-127.08-117.96-.35c.93,1.33,2,2.78,2.67,3.69,1.5,2.03,2.31,3.13,2.87,4.11Z" class="cls-1"></path>
      <path d="M494.29,412.53h76.34l1.54,6.06c.22.86.57,1.66,1,2.4h138.82s-179.01-311.99-179.01-311.99l-181.98,311.99h139.98c.53-1.03,1-2.08,1.38-3.15l1.92-5.31Z" class="cls-1"></path>
      <path d="M469.24,454.33c1.25-3.53,2.89-6.67,4.7-9.6l4.92-7.39-117.86-.35,74.37,128.44,33.81-110.93.06-.17Z" class="cls-1"></path>
      <path d="M610.55,628.59l18.47-31.76v-.03c-.02-.31-.04-.53-.05-.71l-18.92,32.53c.17-.01.34-.02.51-.02Z" class="cls-1"></path>
      <path d="M530.71,672.68c-3.74,0-7.51-.51-11.2-1.52-5.19-1.42-9.91-3.8-13.01-5.47-7.79-4.2-15.33-9.91-22.62-15.44-.71-.54-1.42-1.07-2.12-1.61l47.77,82.39,2.54-.66,45.34-79.59c-.94.69-1.89,1.39-2.84,2.09-12.56,9.28-26.8,19.8-43.87,19.8Z" class="cls-1"></path>
      <path d="M901.98,748.5l-180.48-311.49-86.44,148.58c.03.12.07.25.1.37.57,2.27,1.06,4.65,1.5,7.24l.23.45.09,1.69c0,.16.03.43.06.84l.19,2.49-1.25,2.2-20.83,35.8-4.63-.04c-1.99.22-3.86.49-5.62.81l-64.9,111.55,361.97-.49Z" class="cls-1"></path>
      <path d="M573.7,437.49c-.4-.71-.75-1.45-1.06-2.22-1.08-1.65-1.87-3.51-2.34-5.49-2.78-2.18-4.81-5.26-5.79-8.78h-64.72c-1.99,5.29-5.28,10.05-9.43,13.97-.4.6-.85,1.18-1.33,1.73h.18c-.15.23-.3.46-.46.69l84.99.25s-.03-.09-.04-.13Z" class="cls-2"></path>
      <path d="M441.6,575.65l-.11.35-.35-.61c-.25,2.05-.53,4.08-.86,6.11-.25,1.54-.54,3.07-.81,4.61-.36,2.06-.19.96-.29,2.25-.4,5.23-.58,11.87.33,15.35.68,2.57,1.32,5.16,2.02,7.73l7.99,14.01c.2.08.4.16.6.25,6.18,2.7,12.08,6.82,19.05,6.78,1.54,0,2.85.33,3.96.89l.03-.03-31.55-57.69Z" class="cls-2"></path>
      <path d="M628.84,595.28c-.4-2.48-.89-4.93-1.49-7.36-.67-2.69-1.53-5.32-2.47-7.93-.24-.69-.34-1-.38-1.12.02.1.02.19-.27-.4-.61-1.26-1.26-2.5-1.92-3.73-.15-.27-.26-.54-.39-.82l-.36.62c-.11-.3-.21-.6-.32-.89,0,0-34.88,61.13-34.73,61.05l-.22.53c.17-.1.35-.2.52-.3l-.26.46c6.63-4.26,15.78-5.97,23.28-6.78.07,0,.14,0,.22,0l18.92-32.53c0-.12-.01-.22-.02-.29-.01-.03-.04-.16-.1-.51Z" class="cls-2"></path>
      <path d="M532.98,77L132.01,763.99l796.99,2L532.98,77ZM590.9,642.18l-.27-.25.04.08c-4.32,2.36-8.7,5.45-13.25,8.79l-45.34,79.59-2.54.66-47.77-82.39c-2.73-2.07-5.4-4.06-8.02-5.9,0,0-4.27-2.18-4.27-2.18-.01,0-.1-.02-.26-.02h-.15c-4.72,0-8.85-1.28-12.59-2.89l63.52,111.33-359.99-1,181.98-310.99,88.87,155.76c.06-1.58.15-3.24.29-5.01.01-.18.02-.26.02-.3.02-.76.1-1.22.23-1.9l.44-2.46c.17-.95.34-1.91.5-2.87.49-3.01.82-5.45,1.04-7.67l.08-.8,1.92-6.31-74.37-128.44,117.86.35.24-.36,3.88-5.62c.25-.28.48-.58.69-.89l.5-.75.66-.62c2.55-2.4,4.64-5.16,6.15-8.11h-139.98s181.98-311.99,181.98-311.99l179.01,311.99h-138.82c.55.95,1.25,1.79,2.08,2.44l2.22,1.74.65,2.74c.25,1.08.68,2.08,1.26,2.98l.44.67.29.75c.17.42.36.82.57,1.2l.55.97.16.66c.3.57.92,1.51,1.62,2.51l117.96.35-74.27,127.08c.1.29.2.58.3.87l2.4,5.01c.64,1.17,2.29,4.5,2.29,4.5l.13.24.32.69c.03.1.12.35.31.89,1.09,3.03,1.93,5.75,2.59,8.32l86.44-148.58,180.48,311.49-361.97.49,64.9-111.55c-6.05,1.07-10.76,2.65-14.01,4.73Z" class="cls-2"></path>
      <path d="M441.38,573.32l35.45-116.3c2.61-7.39,7.65-13.24,11.91-19.64l-14.29-3.86-4.92,7.39c-1.81,2.93-3.45,6.06-4.7,9.6l-33.87,111.1,10.17,13.79c.08-.69.18-1.38.25-2.08Z" class="cls-2"></path>
      <path d="M521.63,663.4c-3.94-1.08-7.73-2.87-11.31-4.79-12.41-6.69-26.45-19.25-38.45-26.96l1.27,1.74s-.01,0-.02,0l-.13.13,9.87,22.53c.7.53,1.41,1.06,2.12,1.61,7.29,5.53,14.83,11.24,22.62,15.44,3.1,1.67,7.82,4.05,13.01,5.47,3.69,1.01,7.46,1.52,11.2,1.52,17.07,0,31.3-10.52,43.87-19.8.96-.71,1.9-1.4,2.84-2.09l7.77-22.95c-20.16,11.25-39.36,35.08-64.66,28.16Z" class="cls-2"></path>
      <path d="M581.6,449.46c11.89,20.74,22.82,71.72,30.66,97.14,2.8,9.05,5.73,18.16,8.98,27.05l.1-.17c.06.17.12.34.18.5l11.68-14.4c-2.63-7.58-4.94-14.93-6.77-20.85-2.24-7.26-4.8-16.88-7.51-27.07-6.99-26.29-14.92-56.09-23.87-71.7-.56-.98-1.37-2.09-2.87-4.11-.68-.92-1.75-2.36-2.67-3.69l-15.76,5.46c.8,2.7,6.78,9.98,7.85,11.83Z" class="cls-2"></path>
      <path d="M473.11,633.38c-1.1-.56-2.41-.89-3.96-.89-6.97.04-12.87-4.09-19.05-6.78-.2-.09-.4-.17-.6-.25l6.96,12.2c3.74,1.61,7.87,2.89,12.59,2.89h.15c.16,0,.25.02.26.02,0,0,4.27,2.18,4.27,2.18,2.62,1.84,5.28,3.83,8.02,5.9l-8.78-15.14.13-.13Z" class="cls-2"></path>
      <path d="M439.5,603.72c-.92-3.47-.73-10.11-.33-15.35.1-1.3-.07-.19.29-2.25.27-1.54.56-3.07.81-4.61.33-2.03.61-4.07.86-6.11l-5.77-9.96-1.92,6.31-.08.8c-.22,2.22-.55,4.66-1.04,7.67-.16.96-.33,1.91-.5,2.87l-.44,2.46c-.12.69-.2,1.14-.23,1.9,0,.05,0,.12-.02.3-.14,1.78-.23,3.43-.29,5.01l10.66,18.69c-.7-2.57-1.34-5.16-2.02-7.73Z" class="cls-2"></path>
      <path d="M609.82,628.62c-7.5.82-16.64,2.53-23.28,6.78l.26-.46c-.17.1-.35.2-.52.3l-8.86,15.56c4.55-3.34,8.92-6.43,13.25-8.79l-.04-.08.27.25c3.25-2.09,7.96-3.67,14.01-4.73l5.14-8.83c-.07,0-.14,0-.22,0Z" class="cls-2"></path>
      <path d="M570.29,429.78c.47,1.98,1.27,3.84,2.34,5.49.3.77.65,1.51,1.06,2.22.01.04.03.09.04.13l9.29.03c-.7-1-1.32-1.94-1.62-2.51l-.16-.66-.55-.97c-.21-.37-.4-.78-.57-1.2l-.29-.75-.44-.67c-.58-.9-1.01-1.9-1.26-2.98l-.65-2.74-2.22-1.74c-.84-.65-1.53-1.5-2.08-2.44h-8.68c.98,3.52,3.02,6.61,5.79,8.78Z" class="cls-2"></path>
      <path d="M621.33,573.49l-.1.17c.11.3.21.6.32.89l.36-.62c.13.27.24.54.39.82.66,1.24,1.31,2.48,1.92,3.73.29.59.29.5.27.4.04.12.14.42.38,1.12.94,2.61,1.79,5.24,2.47,7.93.6,2.43,1.09,4.88,1.49,7.36.06.35.09.48.1.51,0,.08.01.18.02.29l6.1-10.49c-.66-2.57-1.51-5.29-2.59-8.32-.2-.55-.28-.79-.31-.89l-.32-.69-.13-.24s-1.65-3.33-2.29-4.5l-2.4-5.01c-.1-.29-.2-.58-.3-.87l-5.21,8.91c-.06-.17-.12-.34-.18-.5Z" class="cls-2"></path>
      <path d="M489.21,436.69h-.18c.48-.55.93-1.13,1.33-1.73,4.15-3.91,7.43-8.68,9.43-13.97h-8.79c-1.52,2.94-3.61,5.7-6.15,8.11l-.66.62-.5.75c-.21.31-.44.61-.69.89l-3.88,5.62-.24.36,9.89.03c.15-.23.31-.46.46-.69Z" class="cls-2"></path>
    </g>
  </g>
</svg>